<?xml version="1.0" encoding="utf-8"?>
<!-- Generator: Adobe Illustrator 25.3.1, SVG Export Plug-In . SVG Version: 6.00 Build 0)  -->
<svg version="1.1" id="Ebene_1" xmlns="http://www.w3.org/2000/svg" xmlns:xlink="http://www.w3.org/1999/xlink" x="0px" y="0px"
	 viewBox="0 0 256 256" style="enable-background:new 0 0 256 256;" xml:space="preserve">
<style type="text/css">
	.st0{fill:#590C87;}
	.st1{fill:#FFFFFF;}
</style>
<rect class="st0" width="256" height="256"/>
<g id="Layer_2">
	<g id="graphics">
		<path class="st1" d="M85.4,132.4l24.9-25l4.6-4.6c-0.3-0.4-0.7-0.8-1.1-1.2c-1.1-1.1-2.2-2.1-3.2-3c-6.5-5.3-14.7-8.1-23.1-7.9
			c-9.8-0.1-19.3,3.8-26.1,11c-7.1,6.8-11.1,16.3-11,26.2c-0.1,9.9,3.8,19.4,11,26.3c6.8,7.1,16.3,11.1,26.2,11
			c9.9,0.1,19.4-3.8,26.3-11l0.8-0.8l-4.6-4.6l-0.8,0.8c-5.7,5.9-13.5,9.1-21.7,9c-7.6,0.1-14.9-2.7-20.4-7.8
			c-1.5-1.3-2.9-2.8-4.1-4.5c-4.1-5.3-6.2-11.7-6.1-18.4c-0.1-8.1,3.1-16,9-21.6c5.7-5.8,13.5-9.1,21.6-9c6.6-0.1,13.1,2,18.4,6.1
			l-24.6,24.8L85.4,132.4z"/>
		<path class="st1" d="M194.6,101.8c-14.5-14.5-38-14.5-52.5,0l-0.8,0.8l4.6,4.7l0.8-0.8c11.5-11.5,30-12,42.1-1.1
			c1.5,1.3,2.8,2.7,4,4.3c4.1,5.3,6.2,11.7,6.1,18.4c0.2,8.1-3,16-8.8,21.6c-10.8,10.7-27.8,12-40,2.9l24.6-24.6l-4.3-4.3
			l-24.9,24.8L141,153l1.1,1.2c1.1,1.1,2.2,2.1,3.2,3c14.8,11.6,36,10.3,49.3-3c7.1-6.8,11.1-16.3,11-26.2
			C205.7,118.1,201.7,108.6,194.6,101.8z"/>
	</g>
</g>
</svg>
